<?xml version="1.0" encoding="UTF-8" standalone="no"?>
<!-- Created with Inkscape (http://www.inkscape.org/) -->

<svg
   xmlns:dc="http://purl.org/dc/elements/1.1/"
   xmlns:cc="http://creativecommons.org/ns#"
   xmlns:rdf="http://www.w3.org/1999/02/22-rdf-syntax-ns#"
   xmlns:svg="http://www.w3.org/2000/svg"
   xmlns="http://www.w3.org/2000/svg"
   xmlns:xlink="http://www.w3.org/1999/xlink"
   xmlns:sodipodi="http://sodipodi.sourceforge.net/DTD/sodipodi-0.dtd"
   xmlns:inkscape="http://www.inkscape.org/namespaces/inkscape"
   width="210mm"
   height="297mm"
   viewBox="0 0 744.09448819 1052.3622047"
   id="svg2"
   version="1.1"
   inkscape:version="0.91 r13725"
   sodipodi:docname="objects.svg"
   inkscape:export-filename="D:\Code\Eclipse\ludum35\core\assets_src\button.png"
   inkscape:export-xdpi="203"
   inkscape:export-ydpi="203">
  <defs
     id="defs4">
    <linearGradient
       inkscape:collect="always"
       id="linearGradient5672-9-3">
      <stop
         style="stop-color:#f50000;stop-opacity:1"
         offset="0"
         id="stop11690" />
      <stop
         style="stop-color:#ffc700;stop-opacity:1"
         offset="1"
         id="stop11692" />
    </linearGradient>
    <inkscape:path-effect
       effect="bend_path"
       id="path-effect10424"
       is_visible="true"
       bendpath="m 101.9385,479.6647 297.50001,0"
       prop_scale="1"
       scale_y_rel="false"
       vertical="false" />
    <linearGradient
       id="linearGradient5672-9"
       inkscape:collect="always">
      <stop
         id="stop6776"
         offset="0"
         style="stop-color:#440034;stop-opacity:1" />
      <stop
         id="stop6778"
         offset="1"
         style="stop-color:#ff0000;stop-opacity:1" />
    </linearGradient>
    <pattern
       inkscape:collect="always"
       xlink:href="#Polkadots-large"
       id="pattern6758"
       patternTransform="matrix(10,0,0,10,-0.10714531,0.53571051)" />
    <linearGradient
       inkscape:collect="always"
       id="linearGradient5682">
      <stop
         style="stop-color:#dfea00;stop-opacity:1"
         offset="0"
         id="stop5684" />
      <stop
         style="stop-color:#0300ea;stop-opacity:1"
         offset="1"
         id="stop5686" />
    </linearGradient>
    <linearGradient
       inkscape:collect="always"
       id="linearGradient5672">
      <stop
         style="stop-color:#d50000;stop-opacity:1"
         offset="0"
         id="stop5674" />
      <stop
         style="stop-color:#02ea00;stop-opacity:1"
         offset="1"
         id="stop5676" />
    </linearGradient>
    <pattern
       inkscape:stockid="Polka dots, large"
       id="Polkadots-large"
       patternTransform="translate(0,0) scale(10,10)"
       height="10"
       width="10"
       patternUnits="userSpaceOnUse"
       inkscape:collect="always">
      <circle
         id="circle5307"
         r="0.45"
         cy="0.810"
         cx="2.567"
         style="fill:black;stroke:none" />
      <circle
         id="circle5309"
         r="0.45"
         cy="2.33"
         cx="3.048"
         style="fill:black;stroke:none" />
      <circle
         id="circle5311"
         r="0.45"
         cy="2.415"
         cx="4.418"
         style="fill:black;stroke:none" />
      <circle
         id="circle5313"
         r="0.45"
         cy="3.029"
         cx="1.844"
         style="fill:black;stroke:none" />
      <circle
         id="circle5315"
         r="0.45"
         cy="1.363"
         cx="6.08"
         style="fill:black;stroke:none" />
      <circle
         id="circle5317"
         r="0.45"
         cy="4.413"
         cx="5.819"
         style="fill:black;stroke:none" />
      <circle
         id="circle5319"
         r="0.45"
         cy="4.048"
         cx="4.305"
         style="fill:black;stroke:none" />
      <circle
         id="circle5321"
         r="0.45"
         cy="3.045"
         cx="5.541"
         style="fill:black;stroke:none" />
      <circle
         id="circle5323"
         r="0.45"
         cy="5.527"
         cx="4.785"
         style="fill:black;stroke:none" />
      <circle
         id="circle5325"
         r="0.45"
         cy="5.184"
         cx="2.667"
         style="fill:black;stroke:none" />
      <circle
         id="circle5327"
         r="0.45"
         cy="1.448"
         cx="7.965"
         style="fill:black;stroke:none" />
      <circle
         id="circle5329"
         r="0.45"
         cy="5.049"
         cx="7.047"
         style="fill:black;stroke:none" />
      <circle
         id="circle5331"
         r="0.45"
         cy="0.895"
         cx="4.340"
         style="fill:black;stroke:none" />
      <circle
         id="circle5333"
         r="0.45"
         cy="0.340"
         cx="7.125"
         style="fill:black;stroke:none" />
      <circle
         id="circle5335"
         r="0.45"
         cy="1.049"
         cx="9.553"
         style="fill:black;stroke:none" />
      <circle
         id="circle5337"
         r="0.45"
         cy="2.689"
         cx="7.006"
         style="fill:black;stroke:none" />
      <circle
         id="circle5339"
         r="0.45"
         cy="2.689"
         cx="8.909"
         style="fill:black;stroke:none" />
      <circle
         id="circle5341"
         r="0.45"
         cy="4.407"
         cx="9.315"
         style="fill:black;stroke:none" />
      <circle
         id="circle5343"
         r="0.45"
         cy="3.870"
         cx="7.820"
         style="fill:black;stroke:none" />
      <circle
         id="circle5345"
         r="0.45"
         cy="5.948"
         cx="8.270"
         style="fill:black;stroke:none" />
      <circle
         id="circle5347"
         r="0.45"
         cy="7.428"
         cx="7.973"
         style="fill:black;stroke:none" />
      <circle
         id="circle5349"
         r="0.45"
         cy="8.072"
         cx="9.342"
         style="fill:black;stroke:none" />
      <circle
         id="circle5351"
         r="0.45"
         cy="9.315"
         cx="8.206"
         style="fill:black;stroke:none" />
      <circle
         id="circle5353"
         r="0.45"
         cy="9.475"
         cx="9.682"
         style="fill:black;stroke:none" />
      <circle
         id="circle5355"
         r="0.45"
         cy="6.186"
         cx="9.688"
         style="fill:black;stroke:none" />
      <circle
         id="circle5357"
         r="0.45"
         cy="6.296"
         cx="3.379"
         style="fill:black;stroke:none" />
      <circle
         id="circle5359"
         r="0.45"
         cy="8.204"
         cx="2.871"
         style="fill:black;stroke:none" />
      <circle
         id="circle5361"
         r="0.45"
         cy="8.719"
         cx="4.59"
         style="fill:black;stroke:none" />
      <circle
         id="circle5363"
         r="0.45"
         cy="9.671"
         cx="3.181"
         style="fill:black;stroke:none" />
      <circle
         id="circle5365"
         r="0.45"
         cy="7.315"
         cx="5.734"
         style="fill:black;stroke:none" />
      <circle
         id="circle5367"
         r="0.45"
         cy="6.513"
         cx="6.707"
         style="fill:black;stroke:none" />
      <circle
         id="circle5369"
         r="0.45"
         cy="9.670"
         cx="5.730"
         style="fill:black;stroke:none" />
      <circle
         id="circle5371"
         r="0.45"
         cy="8.373"
         cx="6.535"
         style="fill:black;stroke:none" />
      <circle
         id="circle5373"
         r="0.45"
         cy="7.154"
         cx="4.37"
         style="fill:black;stroke:none" />
      <circle
         id="circle5375"
         r="0.45"
         cy="7.25"
         cx="0.622"
         style="fill:black;stroke:none" />
      <circle
         id="circle5377"
         r="0.45"
         cy="5.679"
         cx="0.831"
         style="fill:black;stroke:none" />
      <circle
         id="circle5379"
         r="0.45"
         cy="8.519"
         cx="1.257"
         style="fill:black;stroke:none" />
      <circle
         id="circle5381"
         r="0.45"
         cy="6.877"
         cx="1.989"
         style="fill:black;stroke:none" />
      <circle
         id="circle5383"
         r="0.45"
         cy="3.181"
         cx="0.374"
         style="fill:black;stroke:none" />
      <circle
         id="circle5385"
         r="0.45"
         cy="1.664"
         cx="1.166"
         style="fill:black;stroke:none" />
      <circle
         id="circle5387"
         r="0.45"
         cy="0.093"
         cx="1.151"
         style="fill:black;stroke:none" />
      <circle
         id="circle5389"
         r="0.45"
         cy="10.093"
         cx="1.151"
         style="fill:black;stroke:none" />
      <circle
         id="circle5391"
         r="0.45"
         cy="4.451"
         cx="1.302"
         style="fill:black;stroke:none" />
      <circle
         id="circle5393"
         r="0.45"
         cy="3.763"
         cx="3.047"
         style="fill:black;stroke:none" />
    </pattern>
    <linearGradient
       inkscape:collect="always"
       xlink:href="#linearGradient5682"
       id="linearGradient5688"
       x1="291.14285"
       y1="857.71933"
       x2="341"
       y2="857.71933"
       gradientUnits="userSpaceOnUse" />
    <linearGradient
       inkscape:collect="always"
       xlink:href="#linearGradient5672-9"
       id="linearGradient6772"
       x1="92.305588"
       y1="928.43707"
       x2="93.357147"
       y2="897.36566"
       gradientUnits="userSpaceOnUse" />
    <linearGradient
       inkscape:collect="always"
       xlink:href="#linearGradient5672"
       id="linearGradient11661"
       x1="247.00728"
       y1="876.82159"
       x2="247.00728"
       y2="845.57159"
       gradientUnits="userSpaceOnUse" />
    <linearGradient
       inkscape:collect="always"
       xlink:href="#linearGradient5672-9-3"
       id="linearGradient11694"
       x1="242.28572"
       y1="792.09433"
       x2="259.32143"
       y2="792.09433"
       gradientUnits="userSpaceOnUse"
       gradientTransform="matrix(1.0812766,0,0,1.0812766,-19.753123,-63.747414)" />
  </defs>
  <sodipodi:namedview
     id="base"
     pagecolor="#ffffff"
     bordercolor="#666666"
     borderopacity="1.0"
     inkscape:pageopacity="0.0"
     inkscape:pageshadow="2"
     inkscape:zoom="3.959798"
     inkscape:cx="288.81071"
     inkscape:cy="220.70383"
     inkscape:document-units="px"
     inkscape:current-layer="layer1"
     showgrid="false"
     inkscape:window-width="1920"
     inkscape:window-height="1017"
     inkscape:window-x="-8"
     inkscape:window-y="-8"
     inkscape:window-maximized="1" />
  <metadata
     id="metadata7">
    <rdf:RDF>
      <cc:Work
         rdf:about="">
        <dc:format>image/svg+xml</dc:format>
        <dc:type
           rdf:resource="http://purl.org/dc/dcmitype/StillImage" />
        <dc:title></dc:title>
      </cc:Work>
    </rdf:RDF>
  </metadata>
  <g
     inkscape:label="Layer 1"
     inkscape:groupmode="layer"
     id="layer1">
    <g
       id="g6760"
       transform="translate(0.12626907,-0.63134529)"
       inkscape:export-filename="D:\Code\Eclipse\ludum35\core\assets_src\player_roll.png"
       inkscape:export-xdpi="203"
       inkscape:export-ydpi="203">
      <circle
         inkscape:export-ydpi="203"
         inkscape:export-xdpi="203"
         inkscape:export-filename="D:\Code\Eclipse\ludum35\core\assets_src\player_roll.png"
         r="18.571428"
         cy="860.04077"
         cx="171.32143"
         id="path4136-4"
         style="fill:#ffffff;fill-opacity:1;fill-rule:nonzero;stroke:#000000;stroke-width:1.5;stroke-miterlimit:4;stroke-dasharray:none;stroke-opacity:1" />
      <circle
         inkscape:export-ydpi="203"
         inkscape:export-xdpi="203"
         inkscape:export-filename="D:\Code\Eclipse\ludum35\core\assets_src\player_roll.png"
         r="18.571428"
         cy="860.04077"
         cx="171.32143"
         id="path4136"
         style="fill:url(#pattern6758);fill-opacity:1;fill-rule:nonzero;stroke:#000000;stroke-width:1.5;stroke-miterlimit:4;stroke-dasharray:none;stroke-opacity:1" />
    </g>
    <path
       style="fill:url(#linearGradient11661);fill-rule:evenodd;stroke:#000000;stroke-width:1.5;stroke-linecap:butt;stroke-linejoin:miter;stroke-opacity:1;fill-opacity:1;stroke-miterlimit:4;stroke-dasharray:none"
       d="m 224.28571,875.93363 41.42858,0 -18.57143,-35 z"
       id="path5670"
       inkscape:connector-curvature="0"
       inkscape:export-filename="D:\Code\Eclipse\ludum35\core\assets_src\player_walk.png"
       inkscape:export-xdpi="203"
       inkscape:export-ydpi="203" />
    <rect
       style="fill:url(#linearGradient5688);fill-opacity:1;fill-rule:nonzero;stroke:#000000;stroke-width:1.5;stroke-miterlimit:4;stroke-dasharray:none;stroke-opacity:1"
       id="rect5680"
       width="47.857143"
       height="10.714286"
       x="292.14285"
       y="852.36218"
       inkscape:export-filename="D:\Code\Eclipse\ludum35\core\assets_src\player_fly.png"
       inkscape:export-xdpi="203"
       inkscape:export-ydpi="203" />
    <path
       style="fill:url(#linearGradient6772);fill-opacity:1;fill-rule:evenodd;stroke:#000000;stroke-width:1px;stroke-linecap:butt;stroke-linejoin:miter;stroke-opacity:1"
       d="m 56.785714,927.71933 2.857143,-28.92858 1.785715,28.94838 2.5,-21.80552 1.428571,20.71429 3.571429,-29.28572 1.533176,30.45989 2.038252,-11.88846 1.428572,11.99492 1.785714,-21.63778 1.722579,21.61426 3.634564,-30.18568 1.323966,30.10274 4.033177,-23.67417 1.722579,23.94466 4.705992,-30.37323 2.961748,30.3299 2.038252,-17.11562 4.159447,16.99307 2.26912,-28.77878 2.14286,28.61104 3.57143,-20.39676 2.20599,20.60782 1.72258,-16.67925 2.47833,16.73867 2.52167,-18.88152 2.37373,18.8382 4.41199,-27.76677 1.19769,27.97969 4.51659,-19.76541 0,19.64286 z"
       id="path6764"
       inkscape:connector-curvature="0"
       sodipodi:nodetypes="cccccccccccccccccccccccccccccccc" />
    <g
       id="g10557">
      <path
         sodipodi:nodetypes="cccccccccccccccccccccccccccccccc"
         inkscape:connector-curvature="0"
         id="path6764-7"
         d="m 176.58136,464.72595 -2.85715,28.92858 -1.78571,-28.94838 -2.5,21.80552 -1.42857,-20.71429 -3.57143,29.28572 -1.53318,-30.45989 -2.03825,11.88846 -1.42857,-11.99492 -1.78572,21.63778 -1.72257,-21.61426 -3.63457,30.18568 -1.32396,-30.10274 -4.03318,23.67417 -1.72258,-23.94466 -4.70599,30.37323 -2.96175,-30.3299 -2.03825,17.11562 -4.15945,-16.99307 -2.26912,28.77878 -2.14286,-28.61104 -3.57143,20.39676 -2.20599,-20.60782 -1.72258,16.67925 -2.47833,-16.73867 -2.52167,18.88152 -2.37373,-18.8382 -4.41199,27.76677 -1.19769,-27.97969 -4.51659,19.76541 0,-19.64286 z"
         style="fill:#740000;fill-opacity:1;fill-rule:evenodd;stroke:#000000;stroke-width:1px;stroke-linecap:butt;stroke-linejoin:miter;stroke-opacity:1" />
      <path
         sodipodi:nodetypes="cccccccccccccccccccccccccccccccc"
         inkscape:connector-curvature="0"
         id="path6764-7-4"
         d="m 250.86708,464.72599 -2.85715,28.92858 -1.78571,-28.94838 -2.5,21.80552 -1.42857,-20.71429 -3.57143,29.28572 -1.53318,-30.45989 -2.03825,11.88846 -1.42857,-11.99492 -1.78572,21.63778 -1.72257,-21.61426 -3.63457,30.18568 -1.32396,-30.10274 -4.03318,23.67417 -1.72258,-23.94466 -4.70599,30.37323 -2.96175,-30.3299 -2.03825,17.11562 -4.15945,-16.99307 -2.26912,28.77878 -2.14286,-28.61104 -3.57143,20.39676 -2.20599,-20.60782 -1.72258,16.67925 -2.47833,-16.73867 -2.52167,18.88152 -2.37373,-18.8382 -4.41199,27.76677 -1.19769,-27.97969 -4.51659,19.76541 0,-19.64286 z"
         style="fill:#740000;fill-opacity:1;fill-rule:evenodd;stroke:#000000;stroke-width:1px;stroke-linecap:butt;stroke-linejoin:miter;stroke-opacity:1" />
      <path
         sodipodi:nodetypes="cccccccccccccccccccccccccccccccc"
         inkscape:connector-curvature="0"
         id="path6764-7-5"
         d="m 325.15279,464.72599 -2.85715,28.92858 -1.78571,-28.94838 -2.5,21.80552 -1.42857,-20.71429 -3.57143,29.28572 -1.53318,-30.45989 -2.03825,11.88846 -1.42857,-11.99492 -1.78572,21.63778 -1.72257,-21.61426 -3.63457,30.18568 -1.32396,-30.10274 -4.03318,23.67417 -1.72258,-23.94466 -4.70599,30.37323 -2.96175,-30.3299 -2.03825,17.11562 -4.15945,-16.99307 -2.26912,28.77878 -2.14286,-28.61104 -3.57143,20.39676 -2.20599,-20.60782 -1.72258,16.67925 -2.47833,-16.73867 -2.52167,18.88152 -2.37373,-18.8382 -4.41199,27.76677 -1.19769,-27.97969 -4.51659,19.76541 0,-19.64286 z"
         style="fill:#740000;fill-opacity:1;fill-rule:evenodd;stroke:#000000;stroke-width:1px;stroke-linecap:butt;stroke-linejoin:miter;stroke-opacity:1" />
      <path
         sodipodi:nodetypes="cccccccccccccccccccccccccccccccc"
         inkscape:connector-curvature="0"
         id="path6764-7-42"
         d="m 399.43851,464.72599 -2.85715,28.92858 -1.78571,-28.94838 -2.5,21.80552 -1.42857,-20.71429 -3.57143,29.28572 -1.53318,-30.45989 -2.03825,11.88846 -1.42857,-11.99492 -1.78572,21.63778 -1.72257,-21.61426 -3.63457,30.18568 -1.32396,-30.10274 -4.03318,23.67417 -1.72258,-23.94466 -4.70599,30.37323 -2.96175,-30.3299 -2.03825,17.11562 -4.15945,-16.99307 -2.26912,28.77878 -2.14286,-28.61104 -3.57143,20.39676 -2.20599,-20.60782 -1.72258,16.67925 -2.47833,-16.73867 -2.52167,18.88152 -2.37373,-18.8382 -4.41199,27.76677 -1.19769,-27.97969 -4.51659,19.76541 0,-19.64286 z"
         style="fill:#740000;fill-opacity:1;fill-rule:evenodd;stroke:#000000;stroke-width:1px;stroke-linecap:butt;stroke-linejoin:miter;stroke-opacity:1" />
      <path
         sodipodi:nodetypes="cccccccccccccccccccccccccccccccc"
         inkscape:connector-curvature="0"
         id="path6764-7-6"
         d="m 474.43851,464.72597 -2.85715,28.92858 -1.78571,-28.94838 -2.5,21.80552 -1.42857,-20.71429 -3.57143,29.28572 -1.53318,-30.45989 -2.03825,11.88846 -1.42857,-11.99492 -1.78572,21.63778 -1.72257,-21.61426 -3.63457,30.18568 -1.32396,-30.10274 -4.03318,23.67417 -1.72258,-23.94466 -4.70599,30.37323 -2.96175,-30.3299 -2.03825,17.11562 -4.15945,-16.99307 -2.26912,28.77878 -2.14286,-28.61104 -3.57143,20.39676 -2.20599,-20.60782 -1.72258,16.67925 -2.47833,-16.73867 -2.52167,18.88152 -2.37373,-18.8382 -4.41199,27.76677 -1.19769,-27.97969 -4.51659,19.76541 0,-19.64286 z"
         style="fill:#740000;fill-opacity:1;fill-rule:evenodd;stroke:#000000;stroke-width:1px;stroke-linecap:butt;stroke-linejoin:miter;stroke-opacity:1" />
      <path
         sodipodi:nodetypes="cccccccccccccccccccccccccccccccc"
         inkscape:connector-curvature="0"
         id="path6764-7-4-4"
         d="m 548.72423,464.72601 -2.85715,28.92858 -1.78571,-28.94838 -2.5,21.80552 -1.42857,-20.71429 -3.57143,29.28572 -1.53318,-30.45989 -2.03825,11.88846 -1.42857,-11.99492 -1.78572,21.63778 -1.72257,-21.61426 -3.63457,30.18568 -1.32396,-30.10274 -4.03318,23.67417 -1.72258,-23.94466 -4.70599,30.37323 -2.96175,-30.3299 -2.03825,17.11562 -4.15945,-16.99307 -2.26912,28.77878 -2.14286,-28.61104 -3.57143,20.39676 -2.20599,-20.60782 -1.72258,16.67925 -2.47833,-16.73867 -2.52167,18.88152 -2.37373,-18.8382 -4.41199,27.76677 -1.19769,-27.97969 -4.51659,19.76541 0,-19.64286 z"
         style="fill:#740000;fill-opacity:1;fill-rule:evenodd;stroke:#000000;stroke-width:1px;stroke-linecap:butt;stroke-linejoin:miter;stroke-opacity:1" />
      <path
         sodipodi:nodetypes="cccccccccccccccccccccccccccccccc"
         inkscape:connector-curvature="0"
         id="path6764-7-5-4"
         d="m 623.00994,464.72601 -2.85715,28.92858 -1.78571,-28.94838 -2.5,21.80552 -1.42857,-20.71429 -3.57143,29.28572 -1.53318,-30.45989 -2.03825,11.88846 -1.42857,-11.99492 -1.78572,21.63778 -1.72257,-21.61426 -3.63457,30.18568 -1.32396,-30.10274 -4.03318,23.67417 -1.72258,-23.94466 -4.70599,30.37323 -2.96175,-30.3299 -2.03825,17.11562 -4.15945,-16.99307 -2.26912,28.77878 -2.14286,-28.61104 -3.57143,20.39676 -2.20599,-20.60782 -1.72258,16.67925 -2.47833,-16.73867 -2.52167,18.88152 -2.37373,-18.8382 -4.41199,27.76677 -1.19769,-27.97969 -4.51659,19.76541 0,-19.64286 z"
         style="fill:#740000;fill-opacity:1;fill-rule:evenodd;stroke:#000000;stroke-width:1px;stroke-linecap:butt;stroke-linejoin:miter;stroke-opacity:1" />
      <path
         sodipodi:nodetypes="cccccccccccccccccccccccccccccccc"
         inkscape:connector-curvature="0"
         id="path6764-7-42-4"
         d="m 697.29566,464.72601 -2.85715,28.92858 -1.78571,-28.94838 -2.5,21.80552 -1.42857,-20.71429 -3.57143,29.28572 -1.53318,-30.45989 -2.03825,11.88846 -1.42857,-11.99492 -1.78572,21.63778 -1.72257,-21.61426 -3.63457,30.18568 -1.32396,-30.10274 -4.03318,23.67417 -1.72258,-23.94466 -4.70599,30.37323 -2.96175,-30.3299 -2.03825,17.11562 -4.15945,-16.99307 -2.26912,28.77878 -2.14286,-28.61104 -3.57143,20.39676 -2.20599,-20.60782 -1.72258,16.67925 -2.47833,-16.73867 -2.52167,18.88152 -2.37373,-18.8382 -4.41199,27.76677 -1.19769,-27.97969 -4.51659,19.76541 0,-19.64286 z"
         style="fill:#740000;fill-opacity:1;fill-rule:evenodd;stroke:#000000;stroke-width:1px;stroke-linecap:butt;stroke-linejoin:miter;stroke-opacity:1" />
    </g>
    <rect
       style="fill:url(#linearGradient11694);fill-opacity:1;fill-rule:nonzero;stroke:#000000;stroke-width:1.5;stroke-miterlimit:4;stroke-dasharray:none;stroke-opacity:1"
       id="rect11678"
       width="16.798405"
       height="16.798405"
       x="243.03572"
       y="784.32648"
       rx="2.5446403"
       ry="2.05353"
       inkscape:export-filename="D:\Code\Eclipse\ludum35\core\assets_src\rect11678.png"
       inkscape:export-xdpi="203"
       inkscape:export-ydpi="203" />
  </g>
</svg>
